<?xml version="1.0" encoding="UTF-8"?>
<svg xmlns="http://www.w3.org/2000/svg" xmlns:xlink="http://www.w3.org/1999/xlink" width="375pt" height="374.999991pt" viewBox="0 0 375 374.999991" version="1.2">
<defs>
<clipPath id="clip1">
  <path d="M 64 298 L 299 298 L 299 374.964844 L 64 374.964844 Z M 64 298 "/>
</clipPath>
<clipPath id="clip2">
  <path d="M 59.542969 155 L 84 155 L 84 210 L 59.542969 210 Z M 59.542969 155 "/>
</clipPath>
<clipPath id="clip3">
  <path d="M 143 17.976562 L 215 17.976562 L 215 49 L 143 49 Z M 143 17.976562 "/>
</clipPath>
<clipPath id="clip4">
  <path d="M 281 155 L 304.792969 155 L 304.792969 210 L 281 210 Z M 281 155 "/>
</clipPath>
<clipPath id="clip5">
  <path d="M 112.421875 124 L 149 124 L 149 153 L 112.421875 153 Z M 112.421875 124 "/>
</clipPath>
<clipPath id="clip6">
  <path d="M 216 124 L 251.171875 124 L 251.171875 153 L 216 153 Z M 216 124 "/>
</clipPath>
<clipPath id="clip7">
  <path d="M 162 203 L 211 203 L 211 244.082031 L 162 244.082031 Z M 162 203 "/>
</clipPath>
</defs>
<g id="surface1">
<g clip-path="url(#clip1)" clip-rule="nonzero">
<path style=" stroke:none;fill-rule:nonzero;fill:rgb(24.708557%,61.569214%,77.648926%);fill-opacity:1;" d="M 64.949219 374.984375 L 298.457031 374.984375 L 298.457031 337.789062 C 298.457031 326.707031 266.75 307.164062 230.898438 299.859375 C 214.753906 296.566406 199.894531 300.582031 183.011719 300.582031 C 165.5 300.582031 149.394531 296.082031 132.386719 299.121094 C 96.585938 305.546875 64.949219 323.988281 64.949219 337.789062 L 64.949219 374.984375 "/>
</g>
<path style=" stroke:none;fill-rule:nonzero;fill:rgb(92.939758%,59.609985%,41.178894%);fill-opacity:1;" d="M 151.125 325.214844 L 212.285156 325.214844 L 212.285156 248.667969 L 151.125 248.667969 L 151.125 325.214844 "/>
<path style=" stroke:none;fill-rule:nonzero;fill:rgb(97.24884%,66.668701%,46.669006%);fill-opacity:1;" d="M 263.035156 214.949219 C 260.90625 241.707031 215.820312 280.246094 182.5625 280.246094 C 149.304688 280.246094 102.085938 242.785156 102.085938 214.949219 C 102.085938 187.113281 101.003906 140.007812 102.085938 104.6875 C 103.167969 69.347656 136.425781 38.308594 182.5625 38.308594 C 228.714844 38.308594 262.65625 75.769531 263.035156 104.6875 C 263.433594 133.601562 265.183594 188.175781 263.035156 214.949219 "/>
<path style=" stroke:none;fill-rule:nonzero;fill:rgb(15.689087%,8.239746%,9.799194%);fill-opacity:1;" d="M 270.847656 169.984375 C 270.59375 148.230469 275.046875 126.367188 274.851562 111.109375 C 274.417969 79.351562 233.132812 38.308594 182.542969 38.308594 C 131.96875 38.308594 92.003906 72.316406 90.832031 111.109375 C 90.273438 129.066406 94.058594 149.867188 94.167969 169.984375 L 109.605469 169.984375 C 109.605469 169.984375 107.460938 93.566406 146.09375 93.566406 C 248.03125 82.988281 254.46875 169.984375 254.46875 169.984375 L 270.847656 169.984375 "/>
<path style=" stroke:none;fill-rule:nonzero;fill:rgb(56.858826%,56.079102%,56.079102%);fill-opacity:1;" d="M 183.082031 21.71875 C 206.441406 28.144531 200.8125 38.578125 183.082031 39.335938 C 87.746094 48.386719 83.238281 130.542969 83.238281 130.542969 L 66.554688 130.542969 C 66.554688 130.542969 74.90625 25.730469 183.082031 21.71875 "/>
<path style=" stroke:none;fill-rule:nonzero;fill:rgb(75.289917%,14.118958%,23.139954%);fill-opacity:1;" d="M 83.238281 130.542969 L 83.238281 155.410156 L 67.710938 181.410156 L 66.554688 130.542969 L 83.238281 130.542969 "/>
<path style=" stroke:none;fill-rule:nonzero;fill:rgb(30.979919%,32.159424%,32.548523%);fill-opacity:1;" d="M 81.398438 205.414062 C 81.21875 212.144531 86.554688 217.722656 93.300781 217.882812 C 100.046875 218.042969 105.65625 212.71875 105.820312 205.988281 L 106.953125 158.539062 C 107.117188 151.8125 101.777344 146.214844 95.035156 146.054688 C 88.289062 145.890625 82.695312 151.21875 82.535156 157.945312 L 81.398438 205.414062 "/>
<g clip-path="url(#clip2)" clip-rule="nonzero">
<path style=" stroke:none;fill-rule:nonzero;fill:rgb(75.289917%,14.118958%,23.139954%);fill-opacity:1;" d="M 59.988281 199.65625 C 59.863281 204.710938 81.9375 209.335938 81.9375 209.335938 L 83.238281 155.410156 C 83.238281 155.410156 60.964844 158.992188 60.835938 164.027344 L 59.988281 199.65625 "/>
</g>
<path style=" stroke:none;fill-rule:nonzero;fill:rgb(56.858826%,56.079102%,56.079102%);fill-opacity:1;" d="M 181.929688 21.71875 C 132.476562 19.882812 142.449219 35.59375 181.929688 39.335938 C 277.265625 48.386719 281.777344 130.542969 281.777344 130.542969 L 298.457031 130.542969 C 298.457031 130.542969 290.109375 25.730469 181.929688 21.71875 "/>
<g clip-path="url(#clip3)" clip-rule="nonzero">
<path style=" stroke:none;fill-rule:nonzero;fill:rgb(65.489197%,64.709473%,64.709473%);fill-opacity:1;" d="M 181.929688 17.957031 C 169.015625 17.957031 150.621094 23.699219 145.640625 27.730469 C 140.664062 31.742188 145.261719 46.53125 149.050781 48.132812 C 152.820312 49.71875 163.011719 43.597656 181.929688 43.597656 C 200.453125 43.597656 204.996094 47.628906 209.542969 47 C 214.070312 46.371094 217.136719 26.777344 212.933594 24.976562 C 208.730469 23.160156 192.824219 17.957031 181.929688 17.957031 "/>
</g>
<path style=" stroke:none;fill-rule:nonzero;fill:rgb(75.289917%,14.118958%,23.139954%);fill-opacity:1;" d="M 281.777344 130.542969 L 281.777344 155.410156 L 297.304688 181.410156 L 298.457031 130.542969 L 281.777344 130.542969 "/>
<path style=" stroke:none;fill-rule:nonzero;fill:rgb(30.979919%,32.159424%,32.548523%);fill-opacity:1;" d="M 283.613281 205.414062 C 283.796875 212.144531 278.457031 217.722656 271.710938 217.882812 C 264.964844 218.042969 259.355469 212.71875 259.195312 205.988281 L 258.058594 158.539062 C 257.894531 151.8125 263.234375 146.214844 269.980469 146.054688 C 276.726562 145.890625 282.316406 151.21875 282.480469 157.945312 L 283.613281 205.414062 "/>
<g clip-path="url(#clip4)" clip-rule="nonzero">
<path style=" stroke:none;fill-rule:nonzero;fill:rgb(75.289917%,14.118958%,23.139954%);fill-opacity:1;" d="M 305.023438 199.65625 C 305.148438 204.710938 283.074219 209.335938 283.074219 209.335938 L 281.777344 155.410156 C 281.777344 155.410156 304.050781 158.992188 304.15625 164.027344 L 305.023438 199.65625 "/>
</g>
<path style=" stroke:none;fill-rule:nonzero;fill:rgb(17.649841%,41.178894%,62.748718%);fill-opacity:1;" d="M 212.285156 291.492188 C 212.285156 308.335938 198.59375 321.992188 181.695312 321.992188 C 164.8125 321.992188 151.125 308.335938 151.125 291.492188 C 151.125 291.492188 132.007812 296.640625 132.386719 299.121094 C 136.066406 322.980469 156.75 341.261719 181.695312 341.261719 C 206.386719 341.261719 226.894531 323.359375 230.898438 299.859375 C 231.347656 297.144531 212.285156 291.492188 212.285156 291.492188 "/>
<path style=" stroke:none;fill-rule:nonzero;fill:rgb(0%,0%,0%);fill-opacity:1;" d="M 127.421875 180.96875 L 125.710938 181.03125 L 127.421875 180.976562 L 127.421875 180.96875 L 125.710938 181.03125 L 127.421875 180.976562 C 127.421875 180.972656 127.417969 180.824219 127.417969 180.550781 C 127.417969 179.753906 127.460938 177.898438 127.78125 175.578125 C 128.023438 173.839844 128.417969 171.835938 129.046875 169.832031 C 129.519531 168.324219 130.121094 166.816406 130.875 165.40625 C 132.007812 163.289062 133.464844 161.402344 135.335938 159.953125 C 136.273438 159.226562 137.316406 158.597656 138.515625 158.09375 C 139.714844 157.589844 141.066406 157.203125 142.625 156.980469 C 143.496094 156.855469 144.316406 156.800781 145.09375 156.800781 C 146.816406 156.800781 148.339844 157.074219 149.742188 157.542969 C 150.964844 157.953125 152.097656 158.519531 153.15625 159.214844 C 155.007812 160.425781 156.636719 162.046875 158.027344 163.835938 C 160.109375 166.519531 161.621094 169.566406 162.574219 171.917969 C 163.050781 173.089844 163.390625 174.085938 163.609375 174.773438 C 163.71875 175.121094 163.792969 175.382812 163.84375 175.558594 C 163.867188 175.644531 163.882812 175.707031 163.894531 175.742188 L 163.902344 175.777344 L 163.902344 175.78125 L 165.242188 175.441406 L 163.902344 175.777344 L 163.902344 175.78125 L 165.242188 175.441406 L 163.902344 175.777344 L 166.480469 175.128906 L 163.902344 175.777344 L 166.480469 175.128906 L 163.902344 175.777344 L 167.339844 174.914062 L 163.902344 175.773438 L 163.902344 175.777344 L 167.339844 174.914062 L 163.902344 175.773438 C 164.414062 177.832031 166.5 179.085938 168.558594 178.574219 C 170.613281 178.058594 171.867188 175.96875 171.355469 173.910156 C 171.324219 173.796875 170.945312 172.292969 170.097656 170.058594 C 169.460938 168.382812 168.5625 166.300781 167.335938 164.078125 C 165.492188 160.757812 162.925781 157.109375 159.28125 154.179688 C 157.460938 152.714844 155.363281 151.445312 152.988281 150.539062 C 150.613281 149.636719 147.957031 149.109375 145.09375 149.113281 C 143.941406 149.113281 142.757812 149.199219 141.546875 149.371094 C 138.960938 149.738281 136.617188 150.457031 134.539062 151.457031 C 132.71875 152.335938 131.101562 153.421875 129.691406 154.648438 C 127.21875 156.792969 125.382812 159.34375 124.015625 161.945312 C 121.964844 165.851562 120.929688 169.894531 120.367188 173.257812 C 119.808594 176.625 119.738281 179.324219 119.738281 180.550781 C 119.738281 180.964844 119.746094 181.214844 119.75 181.257812 C 119.828125 183.378906 121.609375 185.035156 123.730469 184.953125 C 125.851562 184.875 127.503906 183.089844 127.421875 180.96875 "/>
<path style=" stroke:none;fill-rule:nonzero;fill:rgb(0%,0%,0%);fill-opacity:1;" d="M 248.597656 181.257812 C 248.597656 181.214844 248.605469 180.964844 248.605469 180.546875 C 248.605469 179.476562 248.550781 177.292969 248.167969 174.523438 C 247.882812 172.449219 247.414062 170.042969 246.625 167.527344 C 246.035156 165.640625 245.261719 163.691406 244.246094 161.78125 C 242.714844 158.917969 240.613281 156.125 237.71875 153.878906 C 236.273438 152.753906 234.636719 151.78125 232.816406 151.007812 C 230.992188 150.242188 228.984375 149.679688 226.804688 149.371094 C 225.589844 149.199219 224.40625 149.113281 223.253906 149.113281 C 220.710938 149.113281 218.328125 149.523438 216.160156 150.253906 C 214.265625 150.890625 212.535156 151.765625 210.976562 152.785156 C 208.246094 154.578125 206.039062 156.816406 204.25 159.125 C 201.566406 162.589844 199.796875 166.222656 198.65625 169.019531 C 197.519531 171.8125 197.023438 173.78125 196.992188 173.910156 C 196.476562 175.96875 197.726562 178.058594 199.789062 178.574219 C 201.84375 179.085938 203.929688 177.832031 204.445312 175.773438 L 202.15625 175.203125 L 204.441406 175.78125 L 204.445312 175.773438 L 202.15625 175.203125 L 204.441406 175.78125 L 204.445312 175.773438 C 204.476562 175.644531 204.832031 174.296875 205.582031 172.386719 C 206.144531 170.953125 206.925781 169.203125 207.941406 167.417969 C 209.46875 164.734375 211.523438 161.996094 214.046875 160.035156 C 215.308594 159.046875 216.683594 158.246094 218.191406 157.6875 C 219.703125 157.128906 221.359375 156.800781 223.253906 156.800781 C 224.03125 156.800781 224.855469 156.855469 225.722656 156.980469 C 227.566406 157.242188 229.125 157.734375 230.480469 158.386719 C 231.664062 158.953125 232.699219 159.652344 233.621094 160.449219 C 235.234375 161.851562 236.519531 163.589844 237.53125 165.523438 C 239.058594 168.410156 239.9375 171.703125 240.398438 174.511719 C 240.867188 177.320312 240.925781 179.632812 240.921875 180.546875 C 240.921875 180.707031 240.921875 180.820312 240.921875 180.890625 L 240.917969 180.964844 L 240.917969 180.976562 L 242.636719 181.03125 L 240.917969 180.96875 L 240.917969 180.976562 L 242.636719 181.03125 L 240.917969 180.96875 C 240.839844 183.089844 242.492188 184.875 244.613281 184.953125 C 246.734375 185.035156 248.515625 183.378906 248.597656 181.257812 "/>
<g clip-path="url(#clip5)" clip-rule="nonzero">
<path style=" stroke:none;fill-rule:nonzero;fill:rgb(0%,0%,0%);fill-opacity:1;" d="M 143.425781 124.703125 C 138.976562 125.210938 118.460938 132.390625 112.441406 152.027344 C 119.910156 136.453125 146.101562 134.25 148.007812 134.296875 C 149.910156 134.339844 147.875 124.195312 143.425781 124.703125 "/>
</g>
<g clip-path="url(#clip6)" clip-rule="nonzero">
<path style=" stroke:none;fill-rule:nonzero;fill:rgb(0%,0%,0%);fill-opacity:1;" d="M 221.644531 124.113281 C 226.070312 124.800781 246.285156 132.78125 251.53125 152.632812 C 244.679688 136.78125 218.59375 133.546875 216.691406 133.519531 C 214.785156 133.488281 217.214844 123.433594 221.644531 124.113281 "/>
</g>
<g clip-path="url(#clip7)" clip-rule="nonzero">
<path style=" stroke:none;fill-rule:nonzero;fill:rgb(0%,0%,0%);fill-opacity:1;" d="M 210.675781 203.285156 C 210.675781 218.492188 199.910156 244.316406 186.628906 244.316406 C 173.351562 244.316406 162.585938 218.492188 162.585938 203.285156 L 210.675781 203.285156 "/>
</g>
<path style=" stroke:none;fill-rule:nonzero;fill:rgb(85.099792%,23.139954%,35.289001%);fill-opacity:1;" d="M 169.332031 221.984375 C 172.933594 231.980469 179.320312 241.199219 186.628906 241.199219 C 193.9375 241.199219 200.324219 231.980469 203.929688 221.984375 C 203.929688 221.984375 198.566406 216.097656 186.628906 216.097656 C 174.695312 216.097656 169.332031 221.984375 169.332031 221.984375 "/>
</g>
</svg>
